<?xml version="1.0" encoding="iso-8859-1"?>
<!-- Generator: Adobe Illustrator 19.0.0, SVG Export Plug-In . SVG Version: 6.00 Build 0)  -->
<svg xmlns="http://www.w3.org/2000/svg" xmlns:xlink="http://www.w3.org/1999/xlink" version="1.1" id="Capa_1" x="0px" y="0px" viewBox="0 0 47.354 47.354" style="enable-background:new 0 0 47.354 47.354;" xml:space="preserve" width="512px" height="512px">
<g>
	<path d="M46.354,0H27.667c-0.404,0-0.769,0.244-0.924,0.617c-0.155,0.374-0.069,0.804,0.217,1.09l8.636,8.636l-9.673,9.673   c-0.391,0.391-0.391,1.024,0,1.414c0.195,0.195,0.451,0.293,0.707,0.293c0.256,0,0.512-0.098,0.707-0.293l10.38-10.38   c0.391-0.391,0.391-1.023,0-1.414L30.081,2h15.273v15.273l-2.283-2.283c-0.391-0.391-1.024-0.391-1.414,0   c-0.391,0.391-0.391,1.023,0,1.414l3.99,3.99c0.286,0.286,0.714,0.371,1.09,0.217c0.374-0.155,0.617-0.52,0.617-0.924V1   C47.354,0.448,46.907,0,46.354,0z" fill="#FFDA44"/>
	<path d="M20.017,25.924l-10.38,10.38c-0.188,0.188-0.293,0.442-0.293,0.707c0,0.265,0.106,0.52,0.293,0.707l7.637,7.637H2V30.082   l2.283,2.283c0.391,0.391,1.023,0.391,1.414,0c0.391-0.39,0.391-1.024,0-1.414l-3.99-3.99c-0.287-0.287-0.716-0.373-1.09-0.217   C0.244,26.899,0,27.263,0,27.667v18.687c0,0.552,0.448,1,1,1h18.687c0.404,0,0.769-0.244,0.924-0.617   c0.155-0.374,0.069-0.804-0.217-1.09l-8.637-8.637l9.673-9.673c0.391-0.391,0.391-1.023,0-1.414   C21.04,25.533,20.407,25.533,20.017,25.924z" fill="#FFDA44"/>
	<path d="M11.05,9.636c-0.375-0.375-1.039-0.375-1.414,0L2,17.273V2h15.272L14.99,4.283c-0.391,0.391-0.391,1.023,0,1.414   c0.391,0.391,1.023,0.391,1.414,0l3.99-3.99c0.286-0.286,0.372-0.716,0.217-1.09C20.456,0.244,20.091,0,19.687,0H1   C0.448,0,0,0.448,0,1v18.687c0,0.404,0.244,0.769,0.617,0.924c0.373,0.154,0.803,0.069,1.09-0.217l8.636-8.637l9.673,9.673   c0.195,0.195,0.451,0.293,0.707,0.293c0.256,0,0.512-0.098,0.707-0.293c0.391-0.391,0.391-1.024,0-1.414L11.05,9.636z" fill="#FFDA44"/>
	<path d="M46.737,26.744c-0.375-0.154-0.803-0.07-1.09,0.217l-8.637,8.636l-9.673-9.673c-0.391-0.391-1.024-0.391-1.414,0   c-0.391,0.391-0.391,1.024,0,1.414l10.38,10.38c0.391,0.391,1.023,0.391,1.414,0l7.637-7.636v15.273H30.081l2.283-2.283   c0.391-0.391,0.391-1.024,0-1.414c-0.391-0.391-1.023-0.391-1.414,0l-3.99,3.99c-0.286,0.286-0.372,0.716-0.217,1.09   c0.155,0.374,0.519,0.617,0.924,0.617h18.687c0.552,0,1-0.448,1-1V27.667C47.354,27.263,47.111,26.899,46.737,26.744z" fill="#FFDA44"/>
</g>
<g>
</g>
<g>
</g>
<g>
</g>
<g>
</g>
<g>
</g>
<g>
</g>
<g>
</g>
<g>
</g>
<g>
</g>
<g>
</g>
<g>
</g>
<g>
</g>
<g>
</g>
<g>
</g>
<g>
</g>
</svg>
