<?xml version="1.0" encoding="iso-8859-1"?>
<!-- Generator: Adobe Illustrator 19.0.0, SVG Export Plug-In . SVG Version: 6.00 Build 0)  -->
<svg xmlns="http://www.w3.org/2000/svg" xmlns:xlink="http://www.w3.org/1999/xlink" version="1.1" id="Capa_1" x="0px" y="0px" viewBox="0 0 38.85 38.85" style="enable-background:new 0 0 38.85 38.85;" xml:space="preserve" width="512px" height="512px">
<g>
	<path d="M37.85,28.985H1c-0.553,0-1,0.448-1,1c0,0.552,0.447,1,1,1h36.85c0.553,0,1-0.448,1-1   C38.85,29.433,38.403,28.985,37.85,28.985z" fill="#FFFFFF"/>
	<path d="M37.85,18.425H1c-0.553,0-1,0.448-1,1c0,0.552,0.447,1,1,1h36.85c0.553,0,1-0.448,1-1   C38.85,18.873,38.403,18.425,37.85,18.425z" fill="#FFFFFF"/>
	<path d="M1,9.866h36.85c0.553,0,1-0.448,1-1c0-0.552-0.447-1-1-1H1c-0.553,0-1,0.448-1,1C0,9.418,0.447,9.866,1,9.866z" fill="#FFFFFF"/>
</g>
<g>
</g>
<g>
</g>
<g>
</g>
<g>
</g>
<g>
</g>
<g>
</g>
<g>
</g>
<g>
</g>
<g>
</g>
<g>
</g>
<g>
</g>
<g>
</g>
<g>
</g>
<g>
</g>
<g>
</g>
</svg>
