<?xml version="1.0" encoding="iso-8859-1"?>
<!-- Generator: Adobe Illustrator 19.0.0, SVG Export Plug-In . SVG Version: 6.00 Build 0)  -->
<svg xmlns="http://www.w3.org/2000/svg" xmlns:xlink="http://www.w3.org/1999/xlink" version="1.1" id="Capa_1" x="0px" y="0px" viewBox="0 0 48.47 48.47" style="enable-background:new 0 0 48.47 48.47;" xml:space="preserve" width="512px" height="512px">
<g>
	<path d="M29.326,4.725c-0.336-0.17-0.739-0.137-1.044,0.086l-14.61,10.747H1c-0.552,0-1,0.448-1,1c0,0.552,0.448,1,1,1h12v8.442   c0,0.552,0.448,1,1,1c0.552,0,1-0.448,1-1v-8.936l12.875-9.47v33.28l-13.282-9.77C14.421,30.979,14.213,30.91,14,30.91H2v-7.775   c0-0.552-0.448-1-1-1c-0.552,0-1,0.448-1,1v8.775c0,0.552,0.448,1,1,1h12.672l14.61,10.747c0.175,0.128,0.383,0.194,0.593,0.194   c0.154,0,0.309-0.036,0.451-0.108c0.337-0.17,0.549-0.515,0.549-0.892V5.618C29.875,5.241,29.663,4.895,29.326,4.725z" fill="#FFFFFF"/>
	<path d="M35.054,18.056c-0.391-0.391-1.023-0.391-1.414,0c-0.391,0.391-0.391,1.023,0,1.414c2.627,2.627,2.627,6.902,0,9.53   c-0.391,0.391-0.391,1.024,0,1.414c0.195,0.195,0.451,0.293,0.707,0.293c0.256,0,0.512-0.098,0.707-0.293   C38.461,27.006,38.461,21.462,35.054,18.056z" fill="#FFFFFF"/>
	<path d="M42.73,10.379c-0.391-0.391-1.023-0.391-1.414,0c-0.391,0.391-0.391,1.023,0,1.414c3.323,3.323,5.153,7.742,5.153,12.442   c0,4.7-1.83,9.118-5.153,12.441c-0.391,0.391-0.391,1.023,0,1.414c0.195,0.195,0.451,0.293,0.707,0.293   c0.256,0,0.512-0.098,0.707-0.293c3.701-3.701,5.739-8.621,5.739-13.855C48.47,19.001,46.432,14.08,42.73,10.379z" fill="#FFFFFF"/>
	<path d="M38.782,14.328c-0.391-0.391-1.023-0.391-1.414,0c-0.391,0.391-0.391,1.023,0,1.414c4.683,4.683,4.683,12.302,0,16.984   c-0.391,0.391-0.391,1.023,0,1.414c0.195,0.195,0.451,0.293,0.707,0.293c0.256,0,0.512-0.098,0.707-0.293   C44.244,28.679,44.244,19.791,38.782,14.328z" fill="#FFFFFF"/>
</g>
<g>
</g>
<g>
</g>
<g>
</g>
<g>
</g>
<g>
</g>
<g>
</g>
<g>
</g>
<g>
</g>
<g>
</g>
<g>
</g>
<g>
</g>
<g>
</g>
<g>
</g>
<g>
</g>
<g>
</g>
</svg>
