<?xml version="1.0" encoding="iso-8859-1"?>
<!-- Generator: Adobe Illustrator 19.0.0, SVG Export Plug-In . SVG Version: 6.00 Build 0)  -->
<svg xmlns="http://www.w3.org/2000/svg" xmlns:xlink="http://www.w3.org/1999/xlink" version="1.1" id="Capa_1" x="0px" y="0px" viewBox="0 0 49.57 49.57" style="enable-background:new 0 0 49.57 49.57;" xml:space="preserve" width="512px" height="512px">
<g>
	<path d="M3.525,9.918h24.491c0.553,0,1-0.448,1-1c0-0.552-0.447-1-1-1H3.525c-0.553,0-1,0.448-1,1   C2.525,9.47,2.973,9.918,3.525,9.918z" fill="#FFFFFF"/>
	<path d="M3.525,23.622h24.491c0.553,0,1-0.448,1-1c0-0.552-0.447-1-1-1H3.525c-0.553,0-1,0.448-1,1   C2.525,23.175,2.973,23.622,3.525,23.622z" fill="#FFFFFF"/>
	<path d="M14.451,35.326H3.525c-0.553,0-1,0.448-1,1c0,0.552,0.447,1,1,1h10.926c0.553,0,1-0.448,1-1   C15.451,35.774,15.004,35.326,14.451,35.326z" fill="#FFFFFF"/>
	<path d="M46.575,0.151C46.281-0.03,45.916-0.05,45.607,0.1L34.764,5.383c-0.345,0.168-0.562,0.517-0.562,0.899v34.977   c-0.716,2.057-3.391,4.212-6.721,5.4c-2.3,0.821-4.619,1.1-6.536,0.787c-1.68-0.275-2.844-0.997-3.195-1.981   c-0.351-0.984,0.094-2.28,1.22-3.556c1.285-1.455,3.259-2.708,5.559-3.528c1.672-0.597,3.373-0.91,4.932-0.91   c0.062,0,0.124,0.001,0.184,0.001c0.546,0,0.992-0.438,1-0.985c0.008-0.552-0.433-1.006-0.985-1.015   c-1.849-0.03-3.847,0.328-5.802,1.025c-2.613,0.932-4.881,2.384-6.386,4.088c-1.647,1.865-2.216,3.836-1.604,5.551   c0.611,1.715,2.301,2.881,4.755,3.283c0.614,0.1,1.26,0.15,1.928,0.15c1.774,0,3.705-0.35,5.604-1.027   c4.03-1.438,7.172-4.119,8.005-6.832c0.029-0.095,0.044-0.194,0.044-0.293V6.907l8.844-4.308V8.64l-6.023,3.45   c-0.479,0.274-0.646,0.885-0.371,1.365c0.275,0.479,0.885,0.645,1.365,0.371l6.526-3.738c0.312-0.178,0.503-0.509,0.503-0.868   V0.999C47.045,0.655,46.867,0.334,46.575,0.151z" fill="#FFFFFF"/>
</g>
<g>
</g>
<g>
</g>
<g>
</g>
<g>
</g>
<g>
</g>
<g>
</g>
<g>
</g>
<g>
</g>
<g>
</g>
<g>
</g>
<g>
</g>
<g>
</g>
<g>
</g>
<g>
</g>
<g>
</g>
</svg>
