<?xml version="1.0" encoding="iso-8859-1"?>
<!-- Generator: Adobe Illustrator 19.0.0, SVG Export Plug-In . SVG Version: 6.00 Build 0)  -->
<svg xmlns="http://www.w3.org/2000/svg" xmlns:xlink="http://www.w3.org/1999/xlink" version="1.1" id="Capa_1" x="0px" y="0px" viewBox="0 0 50.5 50.5" style="enable-background:new 0 0 50.5 50.5;" xml:space="preserve" width="512px" height="512px">
<g>
	<g>
		<path d="M25.25,50.5C11.327,50.5,0,39.173,0,25.25c0-6.8,2.666-13.179,7.507-17.961C7.9,6.901,8.533,6.904,8.922,7.297    C9.31,7.69,9.306,8.323,8.913,8.711C4.455,13.115,2,18.989,2,25.25C2,38.07,12.43,48.5,25.25,48.5    C38.07,48.5,48.5,38.07,48.5,25.25S38.07,2,25.25,2c-3.883,0-7.727,0.977-11.116,2.825c-0.484,0.265-1.092,0.086-1.356-0.399    c-0.265-0.485-0.085-1.092,0.399-1.356C16.859,1.061,21.034,0,25.25,0C39.173,0,50.5,11.327,50.5,25.25    C50.5,39.173,39.173,50.5,25.25,50.5z" fill="#FFFFFF"/>
	</g>
	<g>
		<path d="M17.61,37.002c-0.314,0-0.624-0.148-0.819-0.425c-0.318-0.452-0.209-1.075,0.243-1.393l14.12-9.934l-12.544-8.826v12.773    c0,0.552-0.448,1-1,1s-1-0.448-1-1V14.498c0-0.374,0.208-0.715,0.539-0.888c0.331-0.171,0.731-0.145,1.036,0.07l15.283,10.752    c0.267,0.188,0.425,0.492,0.425,0.818s-0.158,0.63-0.425,0.818L18.184,36.82C18.009,36.943,17.808,37.002,17.61,37.002z" fill="#FFFFFF"/>
	</g>
	<g>
		<path d="M32.891,37.002c-0.553,0-1-0.448-1-1V14.498c0-0.552,0.447-1,1-1s1,0.448,1,1v21.504    C33.891,36.554,33.444,37.002,32.891,37.002z" fill="#FFFFFF"/>
	</g>
</g>
<g>
</g>
<g>
</g>
<g>
</g>
<g>
</g>
<g>
</g>
<g>
</g>
<g>
</g>
<g>
</g>
<g>
</g>
<g>
</g>
<g>
</g>
<g>
</g>
<g>
</g>
<g>
</g>
<g>
</g>
</svg>
