<?xml version="1.0" encoding="iso-8859-1"?>
<!-- Generator: Adobe Illustrator 19.0.0, SVG Export Plug-In . SVG Version: 6.00 Build 0)  -->
<svg xmlns="http://www.w3.org/2000/svg" xmlns:xlink="http://www.w3.org/1999/xlink" version="1.1" id="Capa_1" x="0px" y="0px" viewBox="0 0 50.5 50.5" style="enable-background:new 0 0 50.5 50.5;" xml:space="preserve" width="512px" height="512px">
<g>
	<path d="M25.25,0c-4.217,0-8.392,1.061-12.072,3.069c-0.485,0.265-0.664,0.872-0.399,1.357c0.266,0.485,0.873,0.664,1.356,0.399   C17.523,2.977,21.367,2,25.25,2C38.07,2,48.5,12.43,48.5,25.25S38.07,48.5,25.25,48.5S2,38.07,2,25.25   c0-6.261,2.455-12.134,6.914-16.539C9.307,8.323,9.311,7.69,8.922,7.297c-0.388-0.394-1.02-0.397-1.414-0.009   C2.666,12.072,0,18.451,0,25.25C0,39.173,11.327,50.5,25.25,50.5c13.923,0,25.25-11.327,25.25-25.25C50.5,11.327,39.173,0,25.25,0z   " fill="#FFFFFF"/>
	<path d="M16.125,21.5c-0.553,0-1,0.448-1,1v11.875c0,0.552,0.447,1,1,1h18.25c0.553,0,1-0.448,1-1v-18.25c0-0.552-0.447-1-1-1   h-18.25c-0.553,0-1,0.448-1,1c0,0.552,0.447,1,1,1h17.25v16.25h-16.25V22.5C17.125,21.948,16.678,21.5,16.125,21.5z" fill="#FFFFFF"/>
</g>
<g>
</g>
<g>
</g>
<g>
</g>
<g>
</g>
<g>
</g>
<g>
</g>
<g>
</g>
<g>
</g>
<g>
</g>
<g>
</g>
<g>
</g>
<g>
</g>
<g>
</g>
<g>
</g>
<g>
</g>
</svg>
