<?xml version="1.0" encoding="iso-8859-1"?>
<!-- Generator: Adobe Illustrator 19.0.0, SVG Export Plug-In . SVG Version: 6.00 Build 0)  -->
<svg xmlns="http://www.w3.org/2000/svg" xmlns:xlink="http://www.w3.org/1999/xlink" version="1.1" id="Capa_1" x="0px" y="0px" viewBox="0 0 47.354 47.354" style="enable-background:new 0 0 47.354 47.354;" xml:space="preserve" width="512px" height="512px">
<g>
	<path d="M6.446,17.233C2.892,17.233,0,20.124,0,23.678c0,0.552,0.448,1,1,1c0.552,0,1-0.448,1-1c0-2.452,1.994-4.446,4.446-4.446   c2.452,0,4.446,1.994,4.446,4.446c0,2.452-1.994,4.446-4.446,4.446c-1.188,0-2.304-0.462-3.143-1.302   c-0.391-0.391-1.024-0.39-1.415,0c-0.391,0.391-0.391,1.024,0,1.415c1.217,1.218,2.836,1.888,4.558,1.888   c3.554,0,6.446-2.892,6.446-6.446S10,17.233,6.446,17.233z" fill="#FFFFFF"/>
	<path d="M40.908,17.233c-3.554,0-6.445,2.892-6.445,6.446s2.892,6.446,6.445,6.446c1.722,0,3.341-0.67,4.559-1.888   c0.391-0.391,0.391-1.024,0-1.415c-0.391-0.391-1.024-0.39-1.414,0c-0.84,0.84-1.957,1.303-3.145,1.303   c-2.451,0-4.445-1.994-4.445-4.446c0-2.452,1.994-4.446,4.445-4.446c2.452,0,4.446,1.994,4.446,4.446c0,0.552,0.447,1,1,1   c0.553,0,1-0.448,1-1C47.354,20.124,44.463,17.233,40.908,17.233z" fill="#FFFFFF"/>
	<path d="M26.718,19.05c-0.382,0.399-0.367,1.032,0.031,1.414c0.858,0.821,1.346,1.927,1.372,3.114   c0.027,1.187-0.41,2.314-1.23,3.172c-0.82,0.858-1.926,1.346-3.113,1.373c-2.453,0.052-4.489-1.894-4.545-4.344   c-0.055-2.451,1.894-4.49,4.345-4.545c0.552-0.012,0.99-0.47,0.977-1.022c-0.013-0.553-0.479-1.025-1.022-0.977   c-3.554,0.08-6.379,3.036-6.299,6.589c0.038,1.721,0.746,3.325,1.99,4.514c1.208,1.155,2.784,1.786,4.45,1.786   c0.05,0,0.1,0,0.149-0.002c1.722-0.039,3.324-0.745,4.515-1.99c1.189-1.245,1.823-2.878,1.784-4.599   c-0.038-1.721-0.745-3.324-1.989-4.514C27.731,18.636,27.1,18.651,26.718,19.05z" fill="#FFFFFF"/>
</g>
<g>
</g>
<g>
</g>
<g>
</g>
<g>
</g>
<g>
</g>
<g>
</g>
<g>
</g>
<g>
</g>
<g>
</g>
<g>
</g>
<g>
</g>
<g>
</g>
<g>
</g>
<g>
</g>
<g>
</g>
</svg>
